  0
SECTION
  2
HEADER
  9
$ACADVER
  1
AC1009
  9
$INSBASE
 10
0.000000
 20
0.000000
  9
$LIMMIN
 10
-1185.080000
 20
-1046.520000
  9
$LIMMAX
 10
814.920000
 20
953.480000
  9
$EXTMIN
 10
-1185.080000
 20
-1046.520000
  9
$EXTMAX
 10
814.920000
 20
953.480000
  9
$ATTMODE
 70
0
  9
$LUNITS
 70
2
  9
$LUPREC
 70
4
  9
$THICKNESS
 40
1.600000
  0
ENDSEC
  0
SECTION
  2
TABLES
  0
TABLE
  2
LTYPE
 70
1
  0
LTYPE
  3
Solid Line
  2
CONTINUOUS
 70
0
 72
65
 73
0
 40
0.000000
  0
ENDTAB
  0
TABLE
  2
LAYER
 70
1
  0
LAYER
  2
BG_DXF-EXPORT
 70
0
 62
1
  6
CONTINUOUS
  0
ENDTAB
  0
TABLE
  2
STYLE
 70
1
  0
STYLE
  2
STANDARD
 70
0
 40
0.000000
 41
1.000000
 50
0.000000
 71
0
 42
0.200000
  3
txt
  0
ENDTAB
  0
ENDSEC
  0
SECTION
  2
BLOCKS
  0
BLOCK
  8
0
  2
FIGURE_CIRCLE
 70
0
 10
0.000000
 20
0.000000
  0
CIRCLE
  8
0
 10
0.000000
 20
0.000000
 40
0.500000
  0
ENDBLK
  0
BLOCK
  8
0
  2
FIGURE_SQUARE
 70
0
 10
0.000000
 20
0.000000
  0
POLYLINE
  8
0
 66
1
 70
1
 40
0.000000
 41
0.000000
 39
0.000000
  0
VERTEX
  8
0
 10
-0.500000
 20
-0.500000
 40
0.000000
 41
0.000000
 42
0.000000
  0
VERTEX
  8
0
 10
-0.500000
 20
0.500000
 40
0.000000
 41
0.000000
 42
0.000000
  0
VERTEX
  8
0
 10
0.500000
 20
0.500000
 40
0.000000
 41
0.000000
 42
0.000000
  0
VERTEX
  8
0
 10
0.500000
 20
-0.500000
 40
0.000000
 41
0.000000
 42
0.000000
  0
SEQEND
  0
ENDBLK
  0
BLOCK
  8
0
  2
FIGURE_HEX
 70
0
 10
0.000000
 20
0.000000
  0
POLYLINE
  8
0
 66
1
 70
1
 40
0.000000
 41
0.000000
 39
0.000000
  0
VERTEX
  8
0
 10
-0.500000
 20
0.000000
 40
0.000000
 41
0.000000
 42
0.000000
  0
VERTEX
  8
0
 10
-0.250000
 20
0.500000
 40
0.000000
 41
0.000000
 42
0.000000
  0
VERTEX
  8
0
 10
0.250000
 20
0.500000
 40
0.000000
 41
0.000000
 42
0.000000
  0
VERTEX
  8
0
 10
0.500000
 20
0.000000
 40
0.000000
 41
0.000000
 42
0.000000
  0
VERTEX
  8
0
 10
0.250000
 20
-0.500000
 40
0.000000
 41
0.000000
 42
0.000000
  0
VERTEX
  8
0
 10
-0.250000
 20
-0.500000
 40
0.000000
 41
0.000000
 42
0.000000
  0
SEQEND
  0
ENDBLK
  0
BLOCK
  8
0
  2
FIGURE_OCT
 70
0
 10
0.000000
 20
0.000000
  0
POLYLINE
  8
0
 66
1
 70
1
 40
0.000000
 41
0.000000
 39
0.000000
  0
VERTEX
  8
0
 10
-0.500000
 20
-0.207100
 40
0.000000
 41
0.000000
 42
0.000000
  0
VERTEX
  8
0
 10
-0.500000
 20
0.207100
 40
0.000000
 41
0.000000
 42
0.000000
  0
VERTEX
  8
0
 10
-0.207100
 20
0.500000
 40
0.000000
 41
0.000000
 42
0.000000
  0
VERTEX
  8
0
 10
0.207100
 20
0.500000
 40
0.000000
 41
0.000000
 42
0.000000
  0
VERTEX
  8
0
 10
0.500000
 20
0.207100
 40
0.000000
 41
0.000000
 42
0.000000
  0
VERTEX
  8
0
 10
0.500000
 20
-0.207100
 40
0.000000
 41
0.000000
 42
0.000000
  0
VERTEX
  8
0
 10
0.207100
 20
-0.500000
 40
0.000000
 41
0.000000
 42
0.000000
  0
VERTEX
  8
0
 10
-0.207100
 20
-0.500000
 40
0.000000
 41
0.000000
 42
0.000000
  0
SEQEND
  0
ENDBLK
  0
BLOCK
  8
0
  2
FIGURE_OBLONG
 70
0
 10
0.000000
 20
0.000000
  0
POLYLINE
  8
0
 66
1
 70
1
 40
0.000000
 41
0.000000
 39
0.000000
  0
VERTEX
  8
0
 10
-0.500000
 20
-0.125000
 40
0.000000
 41
0.000000
 42
0.000000
  0
VERTEX
  8
0
 10
-0.500000
 20
0.125000
 40
0.000000
 41
0.000000
 42
0.000000
  0
VERTEX
  8
0
 10
-0.416000
 20
0.375000
 40
0.000000
 41
0.000000
 42
0.000000
  0
VERTEX
  8
0
 10
-0.250000
 20
0.500000
 40
0.000000
 41
0.000000
 42
0.000000
  0
VERTEX
  8
0
 10
0.250000
 20
0.500000
 40
0.000000
 41
0.000000
 42
0.000000
  0
VERTEX
  8
0
 10
0.416000
 20
0.375000
 40
0.000000
 41
0.000000
 42
0.000000
  0
VERTEX
  8
0
 10
0.500000
 20
0.125000
 40
0.000000
 41
0.000000
 42
0.000000
  0
VERTEX
  8
0
 10
0.500000
 20
-0.125000
 40
0.000000
 41
0.000000
 42
0.000000
  0
VERTEX
  8
0
 10
0.416000
 20
-0.375000
 40
0.000000
 41
0.000000
 42
0.000000
  0
VERTEX
  8
0
 10
0.250000
 20
-0.500000
 40
0.000000
 41
0.000000
 42
0.000000
  0
VERTEX
  8
0
 10
-0.250000
 20
-0.500000
 40
0.000000
 41
0.000000
 42
0.000000
  0
VERTEX
  8
0
 10
-0.416000
 20
-0.375000
 40
0.000000
 41
0.000000
 42
0.000000
  0
SEQEND
  0
ENDBLK
  0
BLOCK
  8
0
  2
FIGURE_TRI
 70
0
 10
0.000000
 20
0.000000
  0
POLYLINE
  8
0
 66
1
 70
1
 40
0.000000
 41
0.000000
 39
0.000000
  0
VERTEX
  8
0
 10
-0.500000
 20
-0.500000
 40
0.000000
 41
0.000000
 42
0.000000
  0
VERTEX
  8
0
 10
0.000000
 20
0.500000
 40
0.000000
 41
0.000000
 42
0.000000
  0
VERTEX
  8
0
 10
0.500000
 20
-0.500000
 40
0.000000
 41
0.000000
 42
0.000000
  0
SEQEND
  0
ENDBLK
  0
BLOCK
  8
0
  2
FIGURE_CROSS
 70
0
 10
0.000000
 20
0.000000
  0
POLYLINE
  8
0
 66
1
 70
0
 40
0.000000
 41
0.000000
 39
0.000000
  0
VERTEX
  8
0
 10
-0.500000
 20
0.000000
 40
0.000000
 41
0.000000
 42
0.000000
  0
VERTEX
  8
0
 10
0.500000
 20
0.000000
 40
0.000000
 41
0.000000
 42
0.000000
  0
SEQEND
  0
POLYLINE
  8
0
 66
1
 70
0
 40
0.000000
 41
0.000000
 39
0.000000
  0
VERTEX
  8
0
 10
0.000000
 20
0.500000
 40
0.000000
 41
0.000000
 42
0.000000
  0
VERTEX
  8
0
 10
0.000000
 20
-0.500000
 40
0.000000
 41
0.000000
 42
0.000000
  0
SEQEND
  0
ENDBLK
  0
BLOCK
  8
0
  2
FIGURE_DIAMOND
 70
0
 10
0.000000
 20
0.000000
  0
POLYLINE
  8
0
 66
1
 70
1
 40
0.000000
 41
0.000000
 39
0.000000
  0
VERTEX
  8
0
 10
-0.500000
 20
0.000000
 40
0.000000
 41
0.000000
 42
0.000000
  0
VERTEX
  8
0
 10
0.000000
 20
0.500000
 40
0.000000
 41
0.000000
 42
0.000000
  0
VERTEX
  8
0
 10
0.500000
 20
0.000000
 40
0.000000
 41
0.000000
 42
0.000000
  0
VERTEX
  8
0
 10
0.000000
 20
-0.500000
 40
0.000000
 41
0.000000
 42
0.000000
  0
SEQEND
  0
ENDBLK
  0
ENDSEC
  0
SECTION
  2
ENTITIES
  0
POLYLINE
  8
BG_DXF-EXPORT
 66
1
 70
0
 40
0.000000
 41
0.000000
 39
0.000000
  0
VERTEX
  8
BG_DXF-EXPORT
 10
0.000000
 20
-89.677700
 40
0.000000
 41
0.000000
 42
0.000000
  0
VERTEX
  8
BG_DXF-EXPORT
 10
-180.000000
 20
-89.677700
 40
0.000000
 41
0.000000
 42
0.000000
  0
VERTEX
  8
BG_DXF-EXPORT
 10
-180.000000
 20
-89.846900
 40
0.000000
 41
0.000000
 42
0.000000
  0
SEQEND
  0
POLYLINE
  8
BG_DXF-EXPORT
 66
1
 70
0
 40
0.000000
 41
0.000000
 39
0.000000
  0
VERTEX
  8
BG_DXF-EXPORT
 10
-238.985900
 20
50.000000
 40
0.000000
 41
0.000000
 42
0.000000
  0
VERTEX
  8
BG_DXF-EXPORT
 10
-238.478100
 20
50.000000
 40
0.000000
 41
0.000000
 42
0.000000
  0
VERTEX
  8
BG_DXF-EXPORT
 10
-238.478100
 20
-50.000000
 40
0.000000
 41
0.000000
 42
0.000000
  0
SEQEND
  0
POLYLINE
  8
BG_DXF-EXPORT
 66
1
 70
0
 40
0.000000
 41
0.000000
 39
0.000000
  0
VERTEX
  8
BG_DXF-EXPORT
 10
-228.491600
 20
46.520000
 40
0.000000
 41
0.000000
 42
0.000000
  0
VERTEX
  8
BG_DXF-EXPORT
 10
-228.660800
 20
46.520000
 40
0.000000
 41
0.000000
 42
0.000000
  0
VERTEX
  8
BG_DXF-EXPORT
 10
-228.660800
 20
-50.000000
 40
0.000000
 41
0.000000
 42
0.000000
  0
SEQEND
  0
POLYLINE
  8
BG_DXF-EXPORT
 66
1
 70
0
 40
0.000000
 41
0.000000
 39
0.000000
  0
VERTEX
  8
BG_DXF-EXPORT
 10
-219.182100
 20
39.840000
 40
0.000000
 41
0.000000
 42
0.000000
  0
VERTEX
  8
BG_DXF-EXPORT
 10
-219.012800
 20
39.840000
 40
0.000000
 41
0.000000
 42
0.000000
  0
VERTEX
  8
BG_DXF-EXPORT
 10
-219.012800
 20
-50.000000
 40
0.000000
 41
0.000000
 42
0.000000
  0
SEQEND
  0
POLYLINE
  8
BG_DXF-EXPORT
 66
1
 70
0
 40
0.000000
 41
0.000000
 39
0.000000
  0
VERTEX
  8
BG_DXF-EXPORT
 10
-210.507400
 20
32.982000
 40
0.000000
 41
0.000000
 42
0.000000
  0
VERTEX
  8
BG_DXF-EXPORT
 10
-210.211200
 20
32.982000
 40
0.000000
 41
0.000000
 42
0.000000
  0
VERTEX
  8
BG_DXF-EXPORT
 10
-210.211200
 20
-50.000000
 40
0.000000
 41
0.000000
 42
0.000000
  0
SEQEND
  0
POLYLINE
  8
BG_DXF-EXPORT
 66
1
 70
0
 40
0.000000
 41
0.000000
 39
0.000000
  0
VERTEX
  8
BG_DXF-EXPORT
 10
-201.959700
 20
-41.186000
 40
0.000000
 41
0.000000
 42
0.000000
  0
VERTEX
  8
BG_DXF-EXPORT
 10
-202.044300
 20
-41.186000
 40
0.000000
 41
0.000000
 42
0.000000
  0
VERTEX
  8
BG_DXF-EXPORT
 10
-202.044300
 20
-50.000000
 40
0.000000
 41
0.000000
 42
0.000000
  0
SEQEND
  0
POLYLINE
  8
BG_DXF-EXPORT
 66
1
 70
0
 40
0.000000
 41
0.000000
 39
0.000000
  0
VERTEX
  8
BG_DXF-EXPORT
 10
-186.810700
 20
-42.710000
 40
0.000000
 41
0.000000
 42
0.000000
  0
VERTEX
  8
BG_DXF-EXPORT
 10
-186.937600
 20
-42.710000
 40
0.000000
 41
0.000000
 42
0.000000
  0
VERTEX
  8
BG_DXF-EXPORT
 10
-186.937600
 20
-50.000000
 40
0.000000
 41
0.000000
 42
0.000000
  0
SEQEND
  0
POLYLINE
  8
BG_DXF-EXPORT
 66
1
 70
0
 40
0.000000
 41
0.000000
 39
0.000000
  0
VERTEX
  8
BG_DXF-EXPORT
 10
0.000000
 20
0.000000
 40
0.000000
 41
0.000000
 42
0.000000
  0
VERTEX
  8
BG_DXF-EXPORT
 10
0.000000
 20
-93.345000
 40
0.000000
 41
0.000000
 42
0.000000
  0
SEQEND
  0
POLYLINE
  8
BG_DXF-EXPORT
 66
1
 70
0
 40
0.000000
 41
0.000000
 39
0.000000
  0
VERTEX
  8
BG_DXF-EXPORT
 10
-90.000000
 20
50.000000
 40
0.000000
 41
0.000000
 42
0.000000
  0
VERTEX
  8
BG_DXF-EXPORT
 10
-251.925000
 20
50.000000
 40
0.000000
 41
0.000000
 42
0.000000
  0
SEQEND
  0
POLYLINE
  8
BG_DXF-EXPORT
 66
1
 70
0
 40
0.000000
 41
0.000000
 39
0.000000
  0
VERTEX
  8
BG_DXF-EXPORT
 10
-7.534000
 20
39.840000
 40
0.000000
 41
0.000000
 42
0.000000
  0
VERTEX
  8
BG_DXF-EXPORT
 10
-222.799000
 20
39.840000
 40
0.000000
 41
0.000000
 42
0.000000
  0
SEQEND
  0
POLYLINE
  8
BG_DXF-EXPORT
 66
1
 70
0
 40
0.000000
 41
0.000000
 39
0.000000
  0
VERTEX
  8
BG_DXF-EXPORT
 10
-7.534000
 20
-42.710000
 40
0.000000
 41
0.000000
 42
0.000000
  0
VERTEX
  8
BG_DXF-EXPORT
 10
-195.494000
 20
-42.710000
 40
0.000000
 41
0.000000
 42
0.000000
  0
SEQEND
  0
POLYLINE
  8
BG_DXF-EXPORT
 66
1
 70
0
 40
0.000000
 41
0.000000
 39
0.000000
  0
VERTEX
  8
BG_DXF-EXPORT
 10
-121.179000
 20
-50.000000
 40
0.000000
 41
0.000000
 42
0.000000
  0
VERTEX
  8
BG_DXF-EXPORT
 10
-241.130000
 20
-50.000000
 40
0.000000
 41
0.000000
 42
0.000000
  0
SEQEND
  0
POLYLINE
  8
BG_DXF-EXPORT
 66
1
 70
0
 40
0.000000
 41
0.000000
 39
0.000000
  0
VERTEX
  8
BG_DXF-EXPORT
 10
-7.534000
 20
-84.091800
 40
0.000000
 41
0.000000
 42
0.000000
  0
VERTEX
  8
BG_DXF-EXPORT
 10
-180.000000
 20
-84.091800
 40
0.000000
 41
0.000000
 42
0.000000
  0
VERTEX
  8
BG_DXF-EXPORT
 10
-180.000000
 20
-84.261100
 40
0.000000
 41
0.000000
 42
0.000000
  0
SEQEND
  0
POLYLINE
  8
BG_DXF-EXPORT
 66
1
 70
0
 40
0.000000
 41
0.000000
 39
0.000000
  0
VERTEX
  8
BG_DXF-EXPORT
 10
-180.000000
 20
-69.874000
 40
0.000000
 41
0.000000
 42
0.000000
  0
VERTEX
  8
BG_DXF-EXPORT
 10
-85.385000
 20
-69.874000
 40
0.000000
 41
0.000000
 42
0.000000
  0
SEQEND
  0
POLYLINE
  8
BG_DXF-EXPORT
 66
1
 70
0
 40
0.000000
 41
0.000000
 39
0.000000
  0
VERTEX
  8
BG_DXF-EXPORT
 10
-180.000000
 20
-56.883000
 40
0.000000
 41
0.000000
 42
0.000000
  0
VERTEX
  8
BG_DXF-EXPORT
 10
-172.634000
 20
-56.883000
 40
0.000000
 41
0.000000
 42
0.000000
  0
VERTEX
  8
BG_DXF-EXPORT
 10
-172.634000
 20
-56.798300
 40
0.000000
 41
0.000000
 42
0.000000
  0
SEQEND
  0
POLYLINE
  8
BG_DXF-EXPORT
 66
1
 70
0
 40
0.000000
 41
0.000000
 39
0.000000
  0
VERTEX
  8
BG_DXF-EXPORT
 10
-180.000000
 20
0.000000
 40
0.001000
 41
0.001000
 42
0.000000
  0
VERTEX
  8
BG_DXF-EXPORT
 10
-180.000000
 20
-93.980000
 40
0.001000
 41
0.001000
 42
0.000000
  0
SEQEND
  0
POLYLINE
  8
BG_DXF-EXPORT
 66
1
 70
0
 40
0.000000
 41
0.000000
 39
0.000000
  0
VERTEX
  8
BG_DXF-EXPORT
 10
-85.385000
 20
-71.590000
 40
0.001000
 41
0.001000
 42
0.000000
  0
VERTEX
  8
BG_DXF-EXPORT
 10
-85.385000
 20
46.520000
 40
0.000000
 41
0.000000
 42
0.000000
  0
VERTEX
  8
BG_DXF-EXPORT
 10
-233.340000
 20
46.520000
 40
0.000000
 41
0.000000
 42
0.000000
  0
SEQEND
  0
POLYLINE
  8
BG_DXF-EXPORT
 66
1
 70
0
 40
0.000000
 41
0.000000
 39
0.000000
  0
VERTEX
  8
BG_DXF-EXPORT
 10
-180.000000
 20
-78.929500
 40
0.000000
 41
0.000000
 42
0.000000
  0
VERTEX
  8
BG_DXF-EXPORT
 10
-55.794000
 20
-78.929500
 40
0.000000
 41
0.000000
 42
0.000000
  0
VERTEX
  8
BG_DXF-EXPORT
 10
-55.794000
 20
-73.571000
 40
0.001000
 41
0.001000
 42
0.000000
  0
VERTEX
  8
BG_DXF-EXPORT
 10
-55.794000
 20
-41.186000
 40
0.000000
 41
0.000000
 42
0.000000
  0
VERTEX
  8
BG_DXF-EXPORT
 10
-206.289000
 20
-41.186000
 40
0.000000
 41
0.000000
 42
0.000000
  0
SEQEND
  0
POLYLINE
  8
BG_DXF-EXPORT
 66
1
 70
0
 40
0.000000
 41
0.000000
 39
0.000000
  0
VERTEX
  8
BG_DXF-EXPORT
 10
-7.534000
 20
39.840000
 40
0.001000
 41
0.001000
 42
0.000000
  0
VERTEX
  8
BG_DXF-EXPORT
 10
-7.534000
 20
-85.890000
 40
0.001000
 41
0.001000
 42
0.000000
  0
SEQEND
  0
POLYLINE
  8
BG_DXF-EXPORT
 66
1
 70
0
 40
0.000000
 41
0.000000
 39
0.000000
  0
VERTEX
  8
BG_DXF-EXPORT
 10
-172.634000
 20
-67.475000
 40
0.001000
 41
0.001000
 42
0.000000
  0
VERTEX
  8
BG_DXF-EXPORT
 10
-172.634000
 20
32.982000
 40
0.000000
 41
0.000000
 42
0.000000
  0
VERTEX
  8
BG_DXF-EXPORT
 10
-212.004000
 20
32.982000
 40
0.000000
 41
0.000000
 42
0.000000
  0
SEQEND
  0
POLYLINE
  8
BG_DXF-EXPORT
 66
1
 70
0
 40
0.000000
 41
0.000000
 39
0.000000
  0
VERTEX
  8
BG_DXF-EXPORT
 10
-5.284000
 20
39.840000
 40
0.000000
 41
0.000000
 42
1.000000
  0
VERTEX
  8
BG_DXF-EXPORT
 10
-9.784000
 20
39.840000
 40
0.000000
 41
0.000000
 42
1.000000
  0
VERTEX
  8
BG_DXF-EXPORT
 10
-5.284000
 20
39.840000
 40
0.000000
 41
0.000000
 42
0.000000
  0
SEQEND
  0
POLYLINE
  8
BG_DXF-EXPORT
 66
1
 70
0
 40
0.000000
 41
0.000000
 39
0.000000
  0
VERTEX
  8
BG_DXF-EXPORT
 10
-5.284000
 20
-42.710000
 40
0.000000
 41
0.000000
 42
1.000000
  0
VERTEX
  8
BG_DXF-EXPORT
 10
-9.784000
 20
-42.710000
 40
0.000000
 41
0.000000
 42
1.000000
  0
VERTEX
  8
BG_DXF-EXPORT
 10
-5.284000
 20
-42.710000
 40
0.000000
 41
0.000000
 42
0.000000
  0
SEQEND
  0
POLYLINE
  8
BG_DXF-EXPORT
 66
1
 70
0
 40
0.000000
 41
0.000000
 39
0.000000
  0
VERTEX
  8
BG_DXF-EXPORT
 10
-53.544000
 20
-41.186000
 40
0.000000
 41
0.000000
 42
1.000000
  0
VERTEX
  8
BG_DXF-EXPORT
 10
-58.044000
 20
-41.186000
 40
0.000000
 41
0.000000
 42
1.000000
  0
VERTEX
  8
BG_DXF-EXPORT
 10
-53.544000
 20
-41.186000
 40
0.000000
 41
0.000000
 42
0.000000
  0
SEQEND
  0
POLYLINE
  8
BG_DXF-EXPORT
 66
1
 70
0
 40
0.000000
 41
0.000000
 39
0.000000
  0
VERTEX
  8
BG_DXF-EXPORT
 10
-83.135000
 20
46.520000
 40
0.000000
 41
0.000000
 42
1.000000
  0
VERTEX
  8
BG_DXF-EXPORT
 10
-87.635000
 20
46.520000
 40
0.000000
 41
0.000000
 42
1.000000
  0
VERTEX
  8
BG_DXF-EXPORT
 10
-83.135000
 20
46.520000
 40
0.000000
 41
0.000000
 42
0.000000
  0
SEQEND
  0
POLYLINE
  8
BG_DXF-EXPORT
 66
1
 70
0
 40
0.000000
 41
0.000000
 39
0.000000
  0
VERTEX
  8
BG_DXF-EXPORT
 10
-170.384000
 20
32.982000
 40
0.000000
 41
0.000000
 42
1.000000
  0
VERTEX
  8
BG_DXF-EXPORT
 10
-174.884000
 20
32.982000
 40
0.000000
 41
0.000000
 42
1.000000
  0
VERTEX
  8
BG_DXF-EXPORT
 10
-170.384000
 20
32.982000
 40
0.000000
 41
0.000000
 42
0.000000
  0
SEQEND
  0
POLYLINE
  8
BG_DXF-EXPORT
 66
1
 70
0
 40
0.000000
 41
0.000000
 39
0.000000
  0
VERTEX
  8
BG_DXF-EXPORT
 10
-170.384000
 20
-41.440000
 40
0.000000
 41
0.000000
 42
1.000000
  0
VERTEX
  8
BG_DXF-EXPORT
 10
-174.884000
 20
-41.440000
 40
0.000000
 41
0.000000
 42
1.000000
  0
VERTEX
  8
BG_DXF-EXPORT
 10
-170.384000
 20
-41.440000
 40
0.000000
 41
0.000000
 42
0.000000
  0
SEQEND
  0
POLYLINE
  8
BG_DXF-EXPORT
 66
1
 70
1
 40
0.000000
 41
0.000000
 39
0.000000
  0
VERTEX
  8
BG_DXF-EXPORT
 10
0.000000
 20
-48.500000
 40
0.000000
 41
0.000000
 42
0.000000
  0
VERTEX
  8
BG_DXF-EXPORT
 10
0.000000
 20
48.500000
 40
0.000000
 41
0.000000
 42
0.414214
  0
VERTEX
  8
BG_DXF-EXPORT
 10
-1.500000
 20
50.000000
 40
0.000000
 41
0.000000
 42
0.000000
  0
VERTEX
  8
BG_DXF-EXPORT
 10
-178.500000
 20
50.000000
 40
0.000000
 41
0.000000
 42
0.414214
  0
VERTEX
  8
BG_DXF-EXPORT
 10
-180.000000
 20
48.500000
 40
0.000000
 41
0.000000
 42
0.000000
  0
VERTEX
  8
BG_DXF-EXPORT
 10
-180.000000
 20
-48.500000
 40
0.000000
 41
0.000000
 42
0.414214
  0
VERTEX
  8
BG_DXF-EXPORT
 10
-178.500000
 20
-50.000000
 40
0.000000
 41
0.000000
 42
0.000000
  0
VERTEX
  8
BG_DXF-EXPORT
 10
-1.500000
 20
-50.000000
 40
0.000000
 41
0.000000
 42
0.414214
  0
SEQEND
  0
TEXT
  8
BG_DXF-EXPORT
 10
-240.030000
 20
-2.540000
 11
0.000000
 21
0.000000
 40
3.175000
 41
0.992000
 50
90.000000
  7
STANDARD
 71
0
 72
0
  1
100
 73
0
  0
TEXT
  8
BG_DXF-EXPORT
 10
-230.505000
 20
-5.715000
 11
0.000000
 21
0.000000
 40
3.175000
 41
0.992000
 50
90.000000
  7
STANDARD
 71
0
 72
0
  1
96.52
 73
0
  0
TEXT
  8
BG_DXF-EXPORT
 10
-220.345000
 20
-5.715000
 11
0.000000
 21
0.000000
 40
3.175000
 41
0.992000
 50
90.000000
  7
STANDARD
 71
0
 72
0
  1
89.84
 73
0
  0
TEXT
  8
BG_DXF-EXPORT
 10
-211.455000
 20
-7.620000
 11
0.000000
 21
0.000000
 40
3.175000
 41
0.992000
 50
90.000000
  7
STANDARD
 71
0
 72
0
  1
82.982
 73
0
  0
TEXT
  8
BG_DXF-EXPORT
 10
-200.660000
 20
-66.040000
 11
0.000000
 21
0.000000
 40
3.175000
 41
0.992000
 50
90.000000
  7
STANDARD
 71
0
 72
0
  1
8.814
 73
0
  0
TEXT
  8
BG_DXF-EXPORT
 10
-185.420000
 20
-63.500000
 11
0.000000
 21
0.000000
 40
3.175000
 41
0.992000
 50
90.000000
  7
STANDARD
 71
0
 72
0
  1
7.29
 73
0
  0
TEXT
  8
BG_DXF-EXPORT
 10
-84.455000
 20
-87.630000
 11
0.000000
 21
0.000000
 40
3.175000
 41
0.992000
 50
0.000000
  7
STANDARD
 71
0
 72
0
  1
200
 73
0
  0
TEXT
  8
BG_DXF-EXPORT
 10
-41.275000
 20
-81.915000
 11
0.000000
 21
0.000000
 40
3.175000
 41
0.992000
 50
0.000000
  7
STANDARD
 71
0
 72
0
  1
172.465
 73
0
  0
TEXT
  8
BG_DXF-EXPORT
 10
-109.220000
 20
-77.470000
 11
0.000000
 21
0.000000
 40
3.175000
 41
0.992000
 50
0.000000
  7
STANDARD
 71
0
 72
0
  1
124.206
 73
0
  0
TEXT
  8
BG_DXF-EXPORT
 10
-140.970000
 20
-68.580000
 11
0.000000
 21
0.000000
 40
3.175000
 41
0.992000
 50
0.000000
  7
STANDARD
 71
0
 72
0
  1
94.615
 73
0
  0
TEXT
  8
BG_DXF-EXPORT
 10
-171.450000
 20
-58.420000
 11
0.000000
 21
0.000000
 40
3.175000
 41
0.992000
 50
0.000000
  7
STANDARD
 71
0
 72
0
  1
7.336
 73
0
  0
ENDSEC
  0
EOF
